<svg width="758" height="312" viewBox="0 0 758 312" fill="none" xmlns="http://www.w3.org/2000/svg">
<path d="M110.001 179.463C110.595 183.262 110.809 186.667 110.637 189.979C110.317 196.144 108.664 202.162 105.419 209.925L104.316 212.567L107.082 213.304L110.637 214.252C108.853 225.376 105.585 231.829 99.4338 243.209L97.1965 247.349L101.879 246.886L103.368 246.725C106.761 246.324 109.601 245.727 112.287 244.611C113.662 244.04 114.964 243.344 116.26 242.505C115.093 247.686 112.7 252.47 109.221 260.967L107.994 263.961L111.201 264.392C137.116 267.869 153.973 268.698 172.228 261.085C172.816 270.865 173.727 276.42 176.649 284H105.822C106.327 277.921 105.794 263.098 103.156 255.06C102.782 253.919 102.014 250.49 100.111 248.967C98.2058 247.444 84.9473 251.646 78.7864 251.614C75.8634 251.6 74.2037 250.791 73.8362 250.49C73.4004 250.135 71.9327 249.601 71.552 247.38C71.1712 245.159 69.864 240.25 69.2668 239.067C68.6692 237.884 64.6973 236.401 63.9358 235.259C63.1742 234.117 63.5295 233.196 64.3166 232.593C69.7117 229.781 69.2487 228.604 60.509 227.263C59.4211 227.127 57.8429 226.882 57.4621 225.739C57.0814 224.597 58.742 222.348 57.4621 219.647C55.3207 215.128 48.7292 213.728 45.6584 211.639C44.7123 210.995 44.8762 210.46 44.8967 210.127C44.8967 210.127 45.1464 209.299 45.6584 208.685C50.1309 202.797 52.2312 199.228 53.2737 191.088C53.2603 191.079 53.247 191.07 53.2336 191.062C53.5791 188.806 53.8846 186.147 54.0198 183.687H69.1008V183.503C69.8855 184.812 70.779 186.151 71.7981 187.585L72.3 188.291L73.1311 188.535L99.0246 196.152L100.81 196.677L101.825 195.116C104.233 191.417 106.362 188.4 108.122 184.484C108.803 182.968 109.425 181.328 110.001 179.463ZM138.95 47.9113C172.215 27.503 220.972 23.4697 258.519 32.6799C252.329 60.2467 243.706 71.2898 221.604 85.2287C236.681 107.385 246.472 138.638 249.76 178.903C251.03 201.854 253.257 213.892 261.505 229.922C258.078 230.677 255.266 230.857 252.142 230.377C248.76 229.858 244.877 228.546 239.342 226.115L237.143 225.151L236.09 227.309C230.21 239.356 224.096 246.78 216.047 252.012C208.746 256.758 199.682 259.812 187.322 262.682C188.459 258.993 188.985 255.687 188.663 250.71L188.392 246.5L184.829 248.76C180.304 251.631 176.051 253.941 171.916 255.777L171.091 256.138C154.582 263.24 139.411 262.989 115.097 259.86C118.921 250.794 121.64 245.231 122.028 236.899L122.306 230.928L117.86 234.922C115.006 237.486 112.755 239.002 110.368 239.993C109.094 240.523 107.735 240.92 106.163 241.236C111.318 231.478 114.313 224.509 115.915 212.749L116.213 210.565L114.082 209.996L111.104 209.201C113.796 202.315 115.31 196.412 115.63 190.238C115.99 183.304 114.837 176.212 112.426 167.212L107.542 167.464C106.389 174.666 105.101 179.01 103.562 182.434C102.221 185.417 100.673 187.758 98.6545 190.831L75.3821 183.986C73.4587 181.22 72.175 178.997 71.2444 176.669C70.2373 174.15 69.5949 171.391 69.0793 167.529L64.1008 167.86V178.687H49.0959V181.187C49.0959 183.177 48.9055 185.527 48.6457 187.707C2.17635 149.589 47.5172 46.8915 129.957 47.9113C129.855 43.7155 132.621 41.3774 136.811 37.2492C138.244 42.1415 138.419 44.4765 137.572 47.9113H138.95Z" fill="url(#paint0_linear_5008_245)"/>
<path d="M69.6013 98.0651L103.872 81.3104" stroke="#F5F5F5" stroke-width="2"/>
<path d="M69.6013 98.0651L103.872 115.581" stroke="#F5F5F5" stroke-width="2"/>
<path d="M69.6013 98.0651L103.872 149.852" stroke="#F5F5F5" stroke-width="2"/>
<path d="M69.6013 132.336L103.872 81.3104" stroke="#F5F5F5" stroke-width="2"/>
<path d="M69.6013 132.336L103.872 115.581" stroke="#F5F5F5" stroke-width="2"/>
<path d="M69.6013 132.336L103.872 149.852" stroke="#F5F5F5" stroke-width="2"/>
<path d="M103.872 81.3104H138.143" stroke="#F5F5F5" stroke-width="2"/>
<path d="M103.872 81.3104L138.143 115.581" stroke="#F5F5F5" stroke-width="2"/>
<path d="M103.872 81.3104L138.143 149.852" stroke="#F5F5F5" stroke-width="2"/>
<path d="M103.872 115.581L138.143 81.3104" stroke="#F5F5F5" stroke-width="2"/>
<path d="M103.872 115.581H138.143" stroke="#F5F5F5" stroke-width="2"/>
<path d="M103.872 115.581L138.143 149.852" stroke="#F5F5F5" stroke-width="2"/>
<path d="M103.872 149.852L138.143 81.3104" stroke="#F5F5F5" stroke-width="2"/>
<path d="M103.872 149.852L138.143 115.581" stroke="#F5F5F5" stroke-width="2"/>
<path d="M103.872 149.852H138.143" stroke="#F5F5F5" stroke-width="2"/>
<path d="M138.143 81.3104H172.414" stroke="#F5F5F5" stroke-width="2"/>
<path d="M138.143 81.3104L172.414 115.581" stroke="#F5F5F5" stroke-width="2"/>
<path d="M138.143 81.3104L172.414 149.852" stroke="#F5F5F5" stroke-width="2"/>
<path d="M138.143 115.581L172.414 81.3104" stroke="#F5F5F5" stroke-width="2"/>
<path d="M138.143 115.581H172.414" stroke="#F5F5F5" stroke-width="2"/>
<path d="M138.143 115.581L172.414 149.852" stroke="#F5F5F5" stroke-width="2"/>
<path d="M138.143 149.852L172.414 81.3104" stroke="#F5F5F5" stroke-width="2"/>
<path d="M138.143 149.852L172.414 115.581" stroke="#F5F5F5" stroke-width="2"/>
<path d="M138.143 149.852H172.414" stroke="#F5F5F5" stroke-width="2"/>
<path d="M172.414 81.3104L206.685 98.0651" stroke="#F5F5F5" stroke-width="2"/>
<path d="M172.414 81.3104L206.685 132.336" stroke="#F5F5F5" stroke-width="2"/>
<path d="M172.414 81.3104L206.685 166.607" stroke="#F5F5F5" stroke-width="2"/>
<path d="M172.414 115.581L206.685 98.0651" stroke="#F5F5F5" stroke-width="2"/>
<path d="M172.414 115.581L206.685 132.336" stroke="#F5F5F5" stroke-width="2"/>
<path d="M172.414 115.581L206.685 166.607" stroke="#F5F5F5" stroke-width="2"/>
<path d="M172.414 149.852L206.685 98.0651" stroke="#F5F5F5" stroke-width="2"/>
<path d="M172.414 149.852L206.685 132.336" stroke="#F5F5F5" stroke-width="2"/>
<path d="M172.414 149.852L206.685 166.607" stroke="#F5F5F5" stroke-width="2"/>
<path d="M69.6013 104.158C72.9662 104.158 75.6939 101.43 75.6939 98.0651C75.6939 94.7002 72.9662 91.9725 69.6013 91.9725C66.2365 91.9725 63.5087 94.7002 63.5087 98.0651C63.5087 101.43 66.2365 104.158 69.6013 104.158Z" fill="#F5F5F5"/>
<path d="M69.6013 138.429C72.9662 138.429 75.6939 135.701 75.6939 132.336C75.6939 128.971 72.9662 126.243 69.6013 126.243C66.2365 126.243 63.5087 128.971 63.5087 132.336C63.5087 135.701 66.2365 138.429 69.6013 138.429Z" fill="#F5F5F5"/>
<path d="M103.872 87.403C107.237 87.403 109.965 84.6753 109.965 81.3104C109.965 77.9456 107.237 75.2178 103.872 75.2178C100.507 75.2178 97.7796 77.9456 97.7796 81.3104C97.7796 84.6753 100.507 87.403 103.872 87.403Z" fill="#F5F5F5"/>
<path d="M103.872 121.674C107.237 121.674 109.965 118.946 109.965 115.581C109.965 112.216 107.237 109.489 103.872 109.489C100.507 109.489 97.7796 112.216 97.7796 115.581C97.7796 118.946 100.507 121.674 103.872 121.674Z" fill="#F5F5F5"/>
<path d="M103.872 155.945C107.237 155.945 109.965 153.217 109.965 149.852C109.965 146.487 107.237 143.76 103.872 143.76C100.507 143.76 97.7796 146.487 97.7796 149.852C97.7796 153.217 100.507 155.945 103.872 155.945Z" fill="#F5F5F5"/>
<path d="M138.143 87.403C141.508 87.403 144.236 84.6753 144.236 81.3104C144.236 77.9456 141.508 75.2178 138.143 75.2178C134.778 75.2178 132.051 77.9456 132.051 81.3104C132.051 84.6753 134.778 87.403 138.143 87.403Z" fill="#F5F5F5"/>
<path d="M138.143 121.674C141.508 121.674 144.236 118.946 144.236 115.581C144.236 112.216 141.508 109.489 138.143 109.489C134.778 109.489 132.051 112.216 132.051 115.581C132.051 118.946 134.778 121.674 138.143 121.674Z" fill="#F5F5F5"/>
<path d="M138.143 155.945C141.508 155.945 144.236 153.217 144.236 149.852C144.236 146.487 141.508 143.76 138.143 143.76C134.778 143.76 132.051 146.487 132.051 149.852C132.051 153.217 134.778 155.945 138.143 155.945Z" fill="#F5F5F5"/>
<path d="M172.414 87.403C175.779 87.403 178.507 84.6753 178.507 81.3104C178.507 77.9456 175.779 75.2178 172.414 75.2178C169.049 75.2178 166.321 77.9456 166.321 81.3104C166.321 84.6753 169.049 87.403 172.414 87.403Z" fill="#F5F5F5"/>
<path d="M172.414 121.674C175.779 121.674 178.507 118.946 178.507 115.581C178.507 112.216 175.779 109.489 172.414 109.489C169.049 109.489 166.321 112.216 166.321 115.581C166.321 118.946 169.049 121.674 172.414 121.674Z" fill="#F5F5F5"/>
<path d="M172.414 155.945C175.779 155.945 178.507 153.217 178.507 149.852C178.507 146.487 175.779 143.76 172.414 143.76C169.049 143.76 166.321 146.487 166.321 149.852C166.321 153.217 169.049 155.945 172.414 155.945Z" fill="#F5F5F5"/>
<path d="M206.685 104.158C210.05 104.158 212.778 101.43 212.778 98.0651C212.778 94.7002 210.05 91.9725 206.685 91.9725C203.32 91.9725 200.592 94.7002 200.592 98.0651C200.592 101.43 203.32 104.158 206.685 104.158Z" fill="#F5F5F5"/>
<path d="M206.685 138.429C210.05 138.429 212.778 135.701 212.778 132.336C212.778 128.971 210.05 126.243 206.685 126.243C203.32 126.243 200.592 128.971 200.592 132.336C200.592 135.701 203.32 138.429 206.685 138.429Z" fill="#F5F5F5"/>
<path d="M206.685 172.699C210.05 172.699 212.778 169.972 212.778 166.607C212.778 163.242 210.05 160.514 206.685 160.514C203.32 160.514 200.592 163.242 200.592 166.607C200.592 169.972 203.32 172.699 206.685 172.699Z" fill="#F5F5F5"/>
<path d="M307.752 144V40.7326H339.57C346.125 40.7326 351.738 42.0772 356.411 44.7664C361.117 47.4557 364.731 51.1366 367.252 55.8092C369.773 60.4818 371.034 65.8099 371.034 71.7935C371.034 77.7098 369.773 83.0043 367.252 87.6769C364.731 92.3495 361.117 96.0472 356.411 98.7701C351.738 101.459 346.141 102.804 339.62 102.804H312.19V96.9548H339.469C344.78 96.9548 349.318 95.8791 353.083 93.7277C356.848 91.5427 359.739 88.5677 361.756 84.8027C363.773 81.0042 364.781 76.6677 364.781 71.7935C364.781 66.8856 363.773 62.5323 361.756 58.7338C359.739 54.9352 356.831 51.9602 353.033 49.8088C349.268 47.6574 344.73 46.5817 339.418 46.5817H314.055V144H307.752ZM380.728 144H374.072L411.335 40.7326H418.596L455.859 144H449.203L415.218 48.8508H414.713L380.728 144ZM390.157 105.123H439.774V110.973H390.157V105.123ZM475.121 40.7326H481.978L521.762 134.924H522.468L562.253 40.7326H569.11V144H563.059V55.7084H562.454L525.09 144H519.14L481.777 55.7084H481.172V144H475.121V40.7326ZM605.251 40.7326V144H598.948V40.7326H605.251ZM674.924 111.729H682.185L697.211 131.545L698.623 133.461L713.851 153.681H706.59L694.085 137.092L692.774 135.277L674.924 111.729ZM717.28 92.3663C717.28 103.022 715.431 112.334 711.733 120.301C708.035 128.234 702.892 134.403 696.304 138.806C689.749 143.21 682.185 145.412 673.613 145.412C665.007 145.412 657.41 143.21 650.822 138.806C644.266 134.369 639.14 128.184 635.442 120.251C631.745 112.284 629.896 102.989 629.896 92.3663C629.896 81.7101 631.745 72.4154 635.442 64.4821C639.174 56.5487 644.317 50.3803 650.872 45.9766C657.427 41.5393 665.007 39.3207 673.613 39.3207C682.185 39.3207 689.749 41.5225 696.304 45.9262C702.892 50.3298 708.035 56.5151 711.733 64.4821C715.431 72.4154 717.28 81.7101 717.28 92.3663ZM711.128 92.3663C711.128 82.7858 709.515 74.4827 706.287 67.457C703.094 60.4314 698.673 55.0024 693.026 51.1702C687.379 47.3044 680.908 45.3715 673.613 45.3715C666.318 45.3715 659.847 47.2876 654.2 51.1198C648.552 54.9184 644.115 60.3473 640.888 67.4066C637.695 74.4323 636.098 82.7522 636.098 92.3663C636.098 101.88 637.678 110.166 640.838 117.225C644.031 124.251 648.452 129.697 654.099 133.562C659.747 137.428 666.251 139.361 673.613 139.361C680.908 139.361 687.379 137.445 693.026 133.613C698.673 129.747 703.094 124.301 706.287 117.276C709.515 110.25 711.128 101.947 711.128 92.3663Z" fill="#EB4F31"/>
<path d="M537.521 192.286C535.173 192.286 532.895 193.14 532.895 195.132V213.711H516.878V195.132C516.878 193.14 514.599 192.286 512.251 192.286C509.903 192.286 507.624 193.14 507.624 195.132V241.406C507.624 243.325 509.972 244.324 512.251 244.324C514.53 244.324 516.878 243.325 516.878 241.406V220.976H532.895V241.406C532.895 243.325 535.243 244.324 537.521 244.324C539.8 244.324 542.148 243.325 542.148 241.406V195.132C542.148 193.14 539.869 192.286 537.521 192.286Z" fill="white"/>
<path d="M437.339 200.398H429.507V215.558H437.339C441.966 215.558 444.957 213.639 444.957 208.013C444.957 202.387 441.969 200.395 437.339 200.395V200.398Z" fill="white"/>
<path d="M573.535 194.994C572.896 192.86 570.188 191.861 567.557 191.861C564.925 191.861 562.29 192.86 561.651 194.994L547.912 239.767C547.84 240.054 547.771 240.334 547.771 240.479C547.771 242.758 551.111 244.324 553.604 244.324C555.17 244.324 556.377 243.823 556.737 242.471L559.437 233H575.741L578.449 242.471C578.809 243.826 580.015 244.324 581.582 244.324C584.068 244.324 587.415 242.685 587.415 240.479C587.415 240.265 587.343 240.054 587.274 239.767L573.535 194.994ZM561.37 225.741L567.564 203.891L573.757 225.741H561.37Z" fill="white"/>
<path d="M484 200.391C490.76 200.391 491.258 205.233 491.4 207.439C491.472 209.572 493.392 210.357 496.026 210.357C499.159 210.357 500.653 209.503 500.653 205.803C500.653 197.546 493.606 192.279 483.709 192.279C474.743 192.279 467.271 196.698 467.271 208.583V228.442C467.271 240.334 474.67 244.746 483.64 244.746C493.606 244.746 500.653 239.269 500.653 230.655C500.653 227.028 499.159 226.101 495.954 226.101C493.533 226.101 491.542 226.813 491.4 229.019C491.189 232.007 490.618 236.637 484.142 236.637V236.627C479.228 236.627 476.524 233.995 476.524 228.442V208.583C476.524 203.037 479.225 200.398 483.996 200.398L484 200.391Z" fill="white"/>
<path d="M634.36 176.152H369.64C364.184 176.152 359.764 180.571 359.764 186.027V250.97C359.764 256.427 364.177 260.846 369.64 260.846H601.79L624.792 290.449C626.293 292.379 627.652 293.343 628.63 293.343C629.609 293.343 630.214 292.389 630.217 290.477L630.176 261.233V260.849H634.36C639.81 260.849 644.236 256.43 644.236 250.974V186.031C644.236 180.581 639.816 176.155 634.36 176.155V176.152ZM414.489 196.84L400.824 241.613C400.184 243.747 397.549 244.746 394.845 244.746C392.141 244.746 389.578 243.747 388.866 241.613L375.128 196.84C375.055 196.553 374.986 196.273 374.986 196.128C374.986 193.849 378.333 192.283 380.82 192.283C382.386 192.283 383.593 192.781 383.952 194.136L394.845 232.712L405.665 194.136C406.024 192.784 407.231 192.283 408.797 192.283C411.291 192.283 414.631 193.922 414.631 196.128C414.631 196.342 414.558 196.553 414.489 196.84ZM448.795 244.68C447.516 244.68 446.302 243.899 445.59 242.474L435.479 222.83H429.5V241.409C429.5 243.328 427.221 244.328 424.873 244.328C422.525 244.328 420.247 243.328 420.247 241.409V195.132H420.253C420.253 193.638 421.46 192.286 423.241 192.286H437.332C446.658 192.286 454.203 195.844 454.203 207.165C454.203 215.35 450.216 219.763 444.877 221.398L454.203 238.695C454.49 239.054 454.556 239.549 454.556 239.836C454.556 242.184 451.496 244.677 448.792 244.677L448.795 244.68ZM629.014 239.161C629.014 244.615 624.595 249.037 619.138 249.037H469.515C464.062 249.037 459.639 244.618 459.639 239.161V197.445C459.639 191.992 464.058 187.57 469.515 187.57H619.138C624.591 187.57 629.014 191.989 629.014 197.445V239.161Z" fill="white"/>
<path d="M618.45 192.286H588.342C586.35 192.286 585.424 194.427 585.424 196.418C585.424 198.69 586.492 200.616 588.342 200.616H598.806V241.399C598.806 243.318 601.154 244.317 603.432 244.317C605.711 244.317 608.059 243.318 608.059 241.399V200.616H618.45C620.297 200.616 621.369 198.625 621.369 196.418C621.369 194.423 620.442 192.286 618.45 192.286Z" fill="white"/>
<path d="M634.36 170.003H369.64C361.02 170.003 354 177.02 354 185.644V250.963C354 259.591 361.02 266.603 369.64 266.603H598.965L620.245 293.98C622.887 297.375 625.705 299.094 628.63 299.094C630.518 299.094 632.278 298.364 633.603 297.04C635.179 295.453 635.978 293.236 635.975 290.432L635.947 266.517C643.824 265.718 650 259.048 650 250.956V185.64C650 177.009 642.984 170 634.363 170L634.36 170.003ZM644.236 250.967C644.236 256.423 639.81 260.843 634.36 260.843H630.176V261.226L630.217 290.47C630.21 292.382 629.609 293.336 628.63 293.336C627.652 293.336 626.293 292.368 624.792 290.442L601.79 260.839H369.64C364.18 260.839 359.764 256.42 359.764 250.963V186.02C359.764 180.564 364.184 176.145 369.64 176.145H634.36C639.816 176.145 644.236 180.571 644.236 186.02V250.963V250.967Z" fill="black"/>
<path d="M408.797 192.286C407.231 192.286 406.024 192.788 405.665 194.14L394.845 232.716L383.952 194.14C383.593 192.784 382.386 192.286 380.819 192.286C378.333 192.286 374.986 193.853 374.986 196.131C374.986 196.273 375.059 196.557 375.128 196.844L388.866 241.617C389.578 243.75 392.141 244.749 394.845 244.749C397.549 244.749 400.184 243.75 400.823 241.617L414.489 196.844C414.562 196.557 414.631 196.349 414.631 196.131C414.631 193.925 411.291 192.286 408.797 192.286Z" fill="black"/>
<path d="M444.877 221.398C450.216 219.759 454.203 215.347 454.203 207.166C454.203 195.841 446.658 192.286 437.332 192.286H423.241C421.46 192.286 420.253 193.638 420.253 195.132H420.247V241.409C420.247 243.328 422.525 244.328 424.873 244.328C427.221 244.328 429.5 243.328 429.5 241.409V222.83H435.479L445.589 242.474C446.302 243.895 447.516 244.68 448.795 244.68C451.496 244.68 454.559 242.187 454.559 239.839C454.559 239.552 454.494 239.058 454.207 238.698L444.881 221.402L444.877 221.398ZM437.339 215.558H429.507V200.398H437.339C441.966 200.398 444.957 202.39 444.957 208.016C444.957 213.642 441.969 215.561 437.339 215.561V215.558Z" fill="black"/>
<path d="M561.37 225.741H573.757L567.564 203.891L561.37 225.741Z" fill="black"/>
<path d="M619.138 187.57H469.515C464.058 187.57 459.639 191.992 459.639 197.445V239.161C459.639 244.618 464.062 249.037 469.515 249.037H619.138C624.595 249.037 629.014 244.615 629.014 239.161V197.445C629.014 191.989 624.591 187.57 619.138 187.57ZM484.142 236.62V236.63C490.615 236.63 491.189 232.004 491.4 229.013C491.542 226.806 493.533 226.094 495.954 226.094C499.159 226.094 500.653 227.021 500.653 230.648C500.653 239.262 493.606 244.739 483.64 244.739C474.674 244.739 467.271 240.327 467.271 228.435V208.576C467.271 196.692 474.743 192.272 483.709 192.272C493.602 192.272 500.653 197.539 500.653 205.796C500.653 209.496 499.159 210.35 496.026 210.35C493.392 210.35 491.472 209.569 491.4 207.432C491.258 205.226 490.76 200.385 484 200.385C479.228 200.385 476.527 203.019 476.527 208.569V228.428C476.527 233.982 479.228 236.613 484.145 236.613L484.142 236.62ZM542.148 241.399V241.406C542.148 243.325 539.8 244.324 537.521 244.324C535.242 244.324 532.895 243.325 532.895 241.406V220.976H516.878V241.406C516.878 243.325 514.53 244.324 512.251 244.324C509.972 244.324 507.624 243.325 507.624 241.406V195.132C507.624 193.14 509.903 192.286 512.251 192.286C514.599 192.286 516.878 193.14 516.878 195.132V213.711H532.895V195.132C532.895 193.14 535.173 192.286 537.521 192.286C539.869 192.286 542.148 193.14 542.148 195.132V241.399ZM581.582 244.321C580.015 244.321 578.809 243.826 578.449 242.467L575.741 232.996H559.437L556.737 242.467C556.377 243.819 555.17 244.321 553.604 244.321C551.111 244.321 547.77 242.754 547.77 240.476C547.77 240.334 547.843 240.05 547.912 239.763L561.651 194.99C562.29 192.857 564.925 191.857 567.557 191.857C570.188 191.857 572.896 192.857 573.535 194.99L587.274 239.763C587.346 240.05 587.415 240.258 587.415 240.476C587.415 242.682 584.068 244.321 581.582 244.321ZM618.45 200.613H608.059V241.395C608.059 243.314 605.711 244.314 603.432 244.314C601.154 244.314 598.806 243.314 598.806 241.395V200.613H588.342C586.496 200.613 585.424 198.687 585.424 196.415C585.424 194.423 586.35 192.283 588.342 192.283H618.45C620.442 192.283 621.369 194.416 621.369 196.415C621.369 198.621 620.3 200.613 618.45 200.613Z" fill="black"/>
<defs>
<linearGradient id="paint0_linear_5008_245" x1="64.2801" y1="81.3103" x2="299.99" y2="311.751" gradientUnits="userSpaceOnUse">
<stop stop-color="#FF2129"/>
<stop offset="1" stop-color="#FFE700"/>
</linearGradient>
</defs>
</svg>
